HIERARCHY
ROOT Hips
{
	OFFSET -3.958830 18.904000 13.208200
	CHANNELS 6 Xposition Yposition Zposition Zrotation Yrotation Xrotation 
	JOINT LHipJoint
	{
		OFFSET 0.000000 0.000000 0.000000
		CHANNELS 3 Zrotation Yrotation Xrotation
		JOINT LeftUpLeg
		{
			OFFSET 1.800000 -1.400000 0.085000
			CHANNELS 3 Zrotation Yrotation Xrotation
			JOINT LeftLeg
			{
				OFFSET 2.215000 -6.000000 0.000000
				CHANNELS 3 Zrotation Yrotation Xrotation
				JOINT LeftFoot
				{
					OFFSET 2.500000 -6.900000 0.000000
					CHANNELS 3 Zrotation Yrotation Xrotation
					JOINT LeftToeBase
					{
						OFFSET 0.200000 -0.500000 1.950000
						CHANNELS 3 Zrotation Yrotation Xrotation
						End Site
						{
							OFFSET 0.000000 0.000000 0.000000
						}
					}
				}
			}
		}
	}
	JOINT RHipJoint
	{
		OFFSET 0.000000 0.000000 0.000000
		CHANNELS 3 Zrotation Yrotation Xrotation
		JOINT RightUpLeg
		{
			OFFSET -1.800000 -1.400000 0.085000
			CHANNELS 3 Zrotation Yrotation Xrotation
			JOINT RightLeg
			{
				OFFSET -2.215000 -6.000000 0.000000
				CHANNELS 3 Zrotation Yrotation Xrotation
				JOINT RightFoot
				{
					OFFSET -2.500000 -6.900000 0.000000
					CHANNELS 3 Zrotation Yrotation Xrotation
					JOINT RightToeBase
					{
						OFFSET -0.200000 -0.500000 1.950000
						CHANNELS 3 Zrotation Yrotation Xrotation
						End Site
						{
							OFFSET 0.000000 0.000000 0.000000
						}
					}
				}
			}
		}
	}
	JOINT LowerBack
	{
		OFFSET 0.000000 0.000000 0.000000
		CHANNELS 3 Zrotation Yrotation Xrotation
		JOINT Spine
		{
			OFFSET -0.087000 1.940000 -0.288900
			CHANNELS 3 Zrotation Yrotation Xrotation
			JOINT Spine1
			{
				OFFSET 0.000000 1.950000 0.060000
				CHANNELS 3 Zrotation Yrotation Xrotation
				JOINT Neck
				{
					OFFSET 0.000000 0.000000 0.000000
					CHANNELS 3 Zrotation Yrotation Xrotation
					JOINT Neck1
					{
						OFFSET 0.000000 1.600000 0.340000
						CHANNELS 3 Zrotation Yrotation Xrotation
						JOINT Head
						{
							OFFSET 0.000000 1.667000 -0.240000
							CHANNELS 3 Zrotation Yrotation Xrotation
							End Site
							{
								OFFSET 0.000000 0.000000 0.000000
							}
						}
					}
				}
				JOINT LeftShoulder
				{
					OFFSET 0.000000 0.000000 0.000000
					CHANNELS 3 Zrotation Yrotation Xrotation
					JOINT LeftArm
					{
						OFFSET 2.700000 1.550000 -0.730000
						CHANNELS 3 Zrotation Yrotation Xrotation
						JOINT LeftForeArm
						{
							OFFSET 5.450000 0.000000 0.000000
							CHANNELS 3 Zrotation Yrotation Xrotation
							JOINT LeftHand
							{
								OFFSET 3.450000 0.000000 0.000000
								CHANNELS 3 Zrotation Yrotation Xrotation
								JOINT LeftHandIndex1
								{
									OFFSET 0.750000 0.000000 0.000000
									CHANNELS 3 Zrotation Yrotation Xrotation
									End Site
									{
										OFFSET 0.000000 0.000000 0.000000
									}
								}
							}
						}
					}
				}
				JOINT RightShoulder
				{
					OFFSET 0.000000 0.000000 0.000000
					CHANNELS 3 Zrotation Yrotation Xrotation
					JOINT RightArm
					{
						OFFSET -2.700000 1.550000 -0.730000
						CHANNELS 3 Zrotation Yrotation Xrotation
						JOINT RightForeArm
						{
							OFFSET -5.450000 0.000000 0.000000
							CHANNELS 3 Zrotation Yrotation Xrotation
							JOINT RightHand
							{
								OFFSET -3.450000 0.000000 0.000000
								CHANNELS 3 Zrotation Yrotation Xrotation
								JOINT RightHandIndex1
								{
									OFFSET -0.750000 0.000000 0.000000
									CHANNELS 3 Zrotation Yrotation Xrotation
									End Site
									{
										OFFSET 0.000000 0.000000 0.000000
									}
								}
							}
						}
					}
				}
			}
		}
	}
}
MOTION
Frames: 9
Frame Time: 0.016667
-1.188370 18.045210 -1.903970 0.140727 -24.920866 7.654308 -14.957572 13.128242 1.873702 13.121033 -0.645824 -10.406702 0.329770 4.395676 12.598526 -0.408706 4.028921 3.279812 0.189490 0.261290 -0.065090 18.473503 -10.420238 3.579463 -11.970674 2.775957 -19.375102 15.309945 -3.116936 -0.836656 -0.084931 -3.686635 2.946688 0.361530 0.596530 0.351510 -4.158929 -1.052295 -6.821350 11.991947 0.072827 4.085396 -2.278851 -0.141744 8.665110 1.046198 -3.196596 -5.964280 -5.714472 5.005060 24.775702 -4.761520 4.879880 -3.050950 -12.062985 -5.434590 1.826187 8.994455 4.701450 0.976769 12.387646 -32.988247 -1.702312 -4.108424 3.536422 -0.126560 0.518060 -0.169100 0.259270 9.974334 7.640167 1.410833 -15.733562 6.561436 -2.713764 -35.399400 36.340986 -8.424676 2.129400 -1.863234 -0.146520 0.195640 0.045710 0.126210 
-1.203750 18.058490 -1.898070 -0.026585 -24.997336 7.682867 -14.981257 13.078531 1.884998 13.489543 -0.611987 -9.661189 0.324233 4.287158 11.311765 -0.401261 4.026933 3.291737 0.169690 0.223040 -0.047060 18.460810 -10.403576 3.566970 -11.742530 2.698693 -18.695531 14.960308 -2.999277 -1.556296 -0.094444 -3.698242 2.947139 0.335300 0.580310 0.353150 -4.107761 -1.005116 -6.825239 11.498574 0.461629 3.472380 -1.652225 0.036696 8.984187 1.331137 -2.339662 -6.167944 -4.296985 4.095684 25.151034 -5.488770 4.797340 -2.885280 -11.605782 -6.175308 2.005480 10.367040 4.905850 1.181544 10.818405 -33.040104 -1.267164 -4.104438 3.545297 -0.112620 0.515230 -0.165530 0.237850 9.063336 7.790588 1.571264 -16.811921 6.299632 -2.542642 -34.189635 36.001865 -7.901447 2.139813 -1.850901 -0.152770 0.183490 0.052350 0.107200 
-1.201220 18.065690 -1.884400 -0.134425 -24.462655 7.122600 -14.972459 13.072721 1.955829 13.621385 -0.565170 -8.102287 0.678280 4.022974 9.108396 -0.345836 4.008563 3.329877 0.090400 0.097660 -0.076670 18.465073 -10.431277 3.510972 -11.716360 2.370338 -17.337234 14.327077 -3.071116 -1.815555 -0.104448 -3.706155 2.969134 0.233400 0.566270 0.336100 -4.124011 -1.023880 -6.866070 12.048728 0.213535 2.954462 -1.751469 -0.273895 9.464864 1.538902 -2.321070 -7.023829 -4.621377 3.197324 27.130001 -5.701680 4.095690 -1.833190 -9.759846 -7.165953 2.766606 10.647877 5.769488 1.227632 8.891925 -33.068915 -0.719310 -4.055819 3.505680 -0.063160 0.475930 -0.163070 0.208340 6.815345 8.700542 2.184640 -18.008886 6.413063 -2.541811 -31.952172 34.828771 -6.773735 2.175005 -1.777722 -0.165630 0.175720 0.091900 0.093440 
-1.203260 18.067390 -1.875860 0.092323 -24.203011 6.371801 -14.966377 13.082767 2.030234 13.535930 -0.491881 -6.659253 0.843813 3.893026 7.628289 -0.312350 4.026384 3.329941 0.074620 0.043380 -0.048550 18.463583 -10.444638 3.468529 -12.132382 2.092212 -16.326065 14.037408 -3.201843 -1.735496 -0.145431 -3.699355 2.970261 0.175850 0.505310 0.319180 -4.131248 -1.082202 -6.912203 12.588994 0.054484 2.843858 -2.333722 -0.323711 9.786007 1.811705 -2.823374 -7.732918 -5.824327 2.857257 28.741955 -5.874340 3.652470 -2.714520 -7.711927 -7.643684 3.228344 10.269045 4.878856 1.092908 7.521360 -31.214952 -0.267759 -3.987530 3.425903 0.017280 0.403340 -0.119410 0.179200 4.193411 9.563156 2.756544 -19.244418 6.230485 -2.337032 -27.723279 34.943215 -5.351373 2.192562 -1.707627 -0.167180 0.179580 0.106620 0.062640 
-1.202330 18.061270 -1.869150 0.216445 -24.179577 5.886617 -14.948830 13.048596 2.102365 13.602960 -0.425371 -5.550313 0.479197 3.912585 6.446564 -0.251380 4.081066 3.320358 0.039350 -0.014650 -0.056190 18.479366 -10.432834 3.457074 -12.434854 1.945292 -15.625073 13.966176 -3.241114 -1.938222 -0.162890 -3.723665 2.966582 0.118540 0.480550 0.307120 -4.193929 -1.088756 -6.961626 13.369427 -0.075705 2.692229 -3.033930 -0.339165 10.014593 1.928637 -3.418515 -8.363882 -7.236655 3.036108 30.530306 -5.922370 3.568910 -1.990590 -6.411747 -8.096534 3.639055 10.272189 4.672570 1.088131 5.984979 -29.761806 0.166166 -3.943901 3.397234 0.048610 0.365980 -0.105250 0.162380 2.607999 10.469628 3.328311 -19.674875 7.052988 -2.375219 -25.598762 32.673506 -4.323174 2.233419 -1.663948 -0.164690 0.166330 0.119130 0.057360 
-1.191120 18.042510 -1.864980 0.097625 -23.815835 5.777949 -14.904066 13.063456 2.117216 13.380436 -0.414574 -5.218861 0.876748 3.809271 6.199003 -0.212948 4.024230 3.333536 0.024640 -0.036290 -0.061170 18.512088 -10.468488 3.465728 -12.571518 1.949268 -15.749384 14.247072 -3.358238 -1.525816 -0.174261 -3.701330 2.972182 0.079510 0.449020 0.307410 -4.308945 -1.055146 -6.988290 14.756441 -0.369869 2.836268 -4.339956 -0.401571 9.977291 2.187546 -3.735811 -8.888840 -7.967042 3.520815 31.417959 -5.694420 3.943920 -1.856980 -5.926887 -8.628452 3.980738 10.908834 5.166960 1.139980 4.107514 -27.833348 0.588749 -3.902052 3.399590 0.072100 0.333020 -0.078170 0.155390 1.512179 11.109861 3.811149 -19.910524 6.605528 -2.216186 -23.383115 32.296591 -3.584421 2.260918 -1.645645 -0.146450 0.143700 0.117900 0.057390 
-1.190360 18.023170 -1.874990 0.193315 -23.178974 6.203686 -14.878208 13.084934 2.132381 12.971423 -0.508584 -6.252560 0.926143 3.715331 6.380610 -0.241961 3.893821 3.361815 0.056070 0.015680 -0.040250 18.527602 -10.530852 3.413618 -12.641182 2.047980 -16.986721 14.213299 -3.577055 -0.021757 -0.155891 -3.599546 2.994796 0.106960 0.423890 0.309320 -4.359981 -1.018938 -6.956869 15.350349 -0.870567 3.121136 -5.522574 -0.653931 9.887076 2.343339 -3.915180 -8.680497 -8.092708 3.589993 30.429980 -6.135560 4.269290 -3.088010 -6.156851 -8.522869 3.873345 11.736065 5.791640 1.255059 2.936273 -27.018648 0.785897 -3.883011 3.418804 0.074190 0.325180 -0.052650 0.163340 1.340480 10.986997 3.532186 -20.466659 6.336999 -1.955659 -21.248996 34.972658 -3.327619 2.250036 -1.676149 -0.133470 0.142740 0.091720 0.058230 
-1.194230 18.003160 -1.890800 0.419653 -22.440006 6.945394 -14.875838 13.147840 2.138481 12.449219 -0.644281 -8.041396 0.944280 3.663000 7.241557 -0.299566 3.747011 3.390391 0.085540 0.068100 -0.037370 18.519000 -10.582691 3.360220 -12.521641 2.258379 -18.784413 13.630358 -3.699304 1.602001 -0.118427 -3.421476 3.040996 0.143250 0.422180 0.310400 -4.326628 -1.057944 -6.923661 15.072157 -1.150505 3.662508 -5.965495 -0.760170 9.351309 2.261716 -4.088427 -8.346617 -8.039651 3.866197 28.470128 -5.741320 4.414500 -4.726750 -7.154294 -8.744494 3.713680 12.470338 5.948499 1.372582 1.258084 -26.945301 1.039843 -3.875045 3.455119 0.074550 0.323490 -0.040530 0.175910 2.461336 11.285010 3.131191 -20.562210 6.267758 -1.955099 -19.198591 39.546269 -3.298718 2.221557 -1.700185 -0.129280 0.158460 0.080860 0.063850 
-1.198170 17.979840 -1.889220 0.459965 -22.770617 7.788713 -14.879800 13.270350 2.143544 11.756631 -0.754486 -9.786916 0.713379 3.795638 9.182737 -0.357698 3.662996 3.388097 0.147380 0.144090 -0.009290 18.499645 -10.644887 3.301450 -12.390385 2.546290 -21.200473 13.046993 -3.983971 4.321843 -0.079359 -3.234527 3.069700 0.193920 0.410050 0.316650 -4.260452 -1.162881 -6.866406 14.732078 -1.482167 4.379533 -5.830519 -0.950844 8.967731 2.060208 -4.791997 -8.251564 -8.880587 4.801708 26.153684 -4.969900 4.817910 -6.502130 -7.584142 -8.458744 3.923838 10.385467 6.132684 1.287593 -0.451374 -26.550503 1.189080 -3.847132 3.492348 0.083100 0.309770 -0.025550 0.193610 3.328356 11.602644 2.693554 -19.974208 7.055011 -2.347696 -19.065785 42.909017 -3.736900 2.189926 -1.725090 -0.119990 0.160800 0.054160 0.066350 
